<svg width="500" height="425" viewBox="0 0 500 425" fill="none" xmlns="http://www.w3.org/2000/svg">
<path d="M419.82 110.364L381.226 193.051L315.852 179.471L319.224 169.132L373.489 181.219L407.908 110.118C408.255 109.387 408.78 108.76 409.434 108.284C411.175 107.02 414.806 105.152 418.919 107.549C419.9 108.12 420.3 109.335 419.82 110.364Z" fill="#111111"/>
<path d="M342.984 234.348V422.166H218.875L218.875 234.348L342.984 234.348Z" fill="white" stroke="#222222"/>
<path d="M337.246 310.413L332.175 325.468C332.175 325.468 339.953 334.656 339.581 345.177C339.581 345.177 307.995 329.838 308.41 327.26C308.826 324.682 319.592 300.956 319.592 300.956L337.246 310.413Z" fill="black"/>
<path d="M417.809 291.094L427.042 304.02C427.042 304.02 439.045 303.097 447.355 309.56C447.355 309.56 416.424 326.179 414.578 324.333C412.731 322.486 399.805 299.865 399.805 299.865L417.809 291.094Z" fill="black"/>
<path d="M377.183 201.532C379.28 197.439 430.17 286.542 429.35 288.323L391.032 307.713L365.18 265.702L377.183 201.532Z" fill="#F5F5F5" stroke="black" stroke-width="1.9236" stroke-miterlimit="10"/>
<path d="M311.036 176.551C311.036 176.551 389.321 183.527 384.868 216.997C384.868 216.997 387.228 242.157 348.043 316.254L308.396 302.635L341.174 234.309L243.995 232.794C243.995 232.794 209.641 221.719 220.471 175.616L265.463 165.954L311.036 176.551Z" fill="#F5F5F5" stroke="black" stroke-width="1.9236" stroke-miterlimit="10"/>
<path d="M260.848 94.8888C260.848 94.8888 258.54 108.277 256.232 110.585C253.923 112.894 246.537 112.894 246.537 112.894L233.148 102.276L242.843 87.9644L260.848 94.8888Z" fill="white" stroke="black" stroke-width="0.9618" stroke-miterlimit="10"/>
<path d="M265.704 95.5471C278.674 92.2328 286.501 79.0322 283.187 66.0627C279.872 53.0932 266.672 45.2661 253.702 48.5804C240.733 51.8948 232.906 65.0954 236.22 78.0649C239.534 91.0344 252.735 98.8615 265.704 95.5471Z" fill="white"/>
<path d="M259.687 48.0301C272.924 48.0301 283.693 58.7994 283.693 72.0364C283.693 85.2733 272.924 96.0426 259.687 96.0426C246.45 96.0426 235.681 85.2733 235.681 72.0364C235.681 58.7994 246.45 48.0301 259.687 48.0301ZM259.687 47.5688C246.173 47.5688 235.219 58.5234 235.219 72.0368C235.219 85.5498 246.173 96.5049 259.687 96.5049C273.2 96.5049 284.155 85.5503 284.155 72.0368C284.155 58.5234 273.2 47.5688 259.687 47.5688Z" fill="black"/>
<path d="M349.588 171.761C351.55 172.565 352.85 177.22 354.49 178.808C356.13 180.396 358.503 179.078 356.031 175.419M349.39 176.72C351.862 180.378 350.077 182.066 348.176 180.804C347.336 180.246 346.248 178.591 345.327 176.983C343.79 174.302 341.129 172.454 338.073 171.999C332.176 171.121 321.072 170.899 303.109 175.63C273.839 183.34 255.345 182.637 250.078 152.993L270.038 147.883C270.269 148.436 273.778 163.215 273.778 163.215C273.778 163.215 327.868 157.005 335.934 157.007C344.277 157.01 357.331 168.52 358.933 174.674C359.235 175.834 359.284 178.715 356.032 175.42C355.172 174.549 354.386 172.353 351.961 170.444M352.779 176.275C355.25 179.934 353.526 181.526 351.564 180.359C349.703 179.251 349.409 174.437 346.592 172.367" fill="#FCFCFC"/>
<path d="M349.588 171.761C351.55 172.565 352.85 177.22 354.49 178.808C356.13 180.396 358.503 179.078 356.031 175.419M349.39 176.72C351.862 180.378 350.077 182.066 348.176 180.804C347.336 180.246 346.248 178.591 345.327 176.983C343.79 174.302 341.129 172.454 338.073 171.999C332.176 171.121 321.072 170.899 303.109 175.63C273.839 183.34 255.345 182.637 250.078 152.993L270.037 147.883C270.269 148.436 273.778 163.215 273.778 163.215C273.778 163.215 327.868 157.005 335.934 157.007C344.277 157.01 357.331 168.52 358.933 174.674C359.235 175.834 359.284 178.715 356.032 175.42C355.172 174.549 354.386 172.353 351.961 170.444M352.779 176.275C355.25 179.934 353.526 181.526 351.564 180.359C349.703 179.251 349.409 174.437 346.592 172.367" stroke="black" stroke-width="1.9236" stroke-miterlimit="10"/>
<path d="M370.719 155.828C374.412 156.751 376.696 161.481 379.028 161.829C381.488 162.196 382.568 159.879 378.567 157.213M381.491 155.007C385.492 157.674 383.645 159.983 381.337 159.059C379.029 158.136 375.797 153.981 373.489 153.981M381.491 155.007C385.492 157.674 383.645 159.983 381.337 159.059C379.029 158.136 375.797 153.981 373.489 153.981M375.335 159.059C379.336 161.726 378.235 164.163 375.797 163.676C374.72 163.461 372.942 162.241 371.349 161.001C368.694 158.934 365.25 158.171 361.982 158.973C355.676 160.523 344.396 164.881 328.246 177.064C301.932 196.915 283.004 203.84 265.461 176.14L283.466 162.752C283.928 163.214 290.852 172.909 290.852 172.909C290.852 172.909 345.509 148.075 353.638 144.747C362.047 141.306 379.952 147.518 384.107 153.057C384.891 154.102 386.129 156.985 381.492 155.007C380.266 154.484 378.568 152.595 375.336 151.672" fill="white"/>
<path d="M370.719 155.828C374.412 156.751 376.696 161.481 379.028 161.829C381.488 162.196 382.568 159.879 378.567 157.213M381.491 155.007C385.492 157.674 383.645 159.983 381.337 159.059C379.029 158.136 375.797 153.981 373.489 153.981M375.335 159.059C379.336 161.726 378.235 164.163 375.797 163.676C374.72 163.461 372.942 162.241 371.349 161.001C368.694 158.934 365.25 158.171 361.982 158.973C355.676 160.523 344.396 164.881 328.246 177.064C301.932 196.915 283.004 203.84 265.461 176.14L283.466 162.752C283.928 163.214 290.852 172.909 290.852 172.909C290.852 172.909 345.509 148.075 353.638 144.747C362.047 141.306 379.952 147.518 384.107 153.057C384.891 154.102 386.129 156.985 381.492 155.007C380.266 154.484 378.568 152.595 375.336 151.672" stroke="black" stroke-width="1.9236" stroke-miterlimit="10"/>
<path d="M201.023 267.357L201.023 421.935H112L112 267.357H201.023Z" fill="white" stroke="#222222"/>
<path d="M157.146 285.639C157.146 287.832 155.368 289.61 153.174 289.61C150.981 289.61 149.203 287.832 149.203 285.639C149.203 283.445 150.981 281.667 153.174 281.667C155.368 281.667 157.146 283.445 157.146 285.639Z" fill="#F5F5F5" stroke="#222222"/>
<path d="M126.303 291.772C127.854 293.322 127.854 295.837 126.303 297.388C124.752 298.938 122.238 298.938 120.687 297.388C119.136 295.837 119.136 293.322 120.687 291.772C122.238 290.221 124.752 290.221 126.303 291.772Z" fill="#F5F5F5" stroke="#222222"/>
<path d="M151.052 312.06C151.052 314.253 149.274 316.031 147.081 316.031C144.887 316.031 143.109 314.253 143.109 312.06C143.109 309.866 144.887 308.088 147.081 308.088C149.274 308.088 151.052 309.866 151.052 312.06Z" fill="#F5F5F5" stroke="#222222"/>
<path d="M141.748 335.671C143.299 337.222 143.299 339.736 141.748 341.287C140.198 342.838 137.683 342.838 136.132 341.287C134.582 339.736 134.581 337.222 136.132 335.671C137.683 334.12 140.198 334.12 141.748 335.671Z" fill="#F5F5F5" stroke="#222222"/>
<path d="M135.248 365.343C136.799 366.894 136.799 369.409 135.248 370.959C133.698 372.51 131.183 372.51 129.632 370.959C128.082 369.409 128.081 366.894 129.632 365.343C131.183 363.792 133.698 363.793 135.248 365.343Z" fill="#F5F5F5" stroke="#222222"/>
<path d="M155.521 388.477C155.521 390.67 153.743 392.448 151.549 392.448C149.356 392.448 147.578 390.67 147.578 388.477C147.578 386.284 149.356 384.506 151.549 384.506C153.743 384.506 155.521 386.284 155.521 388.477Z" fill="#F5F5F5" stroke="#222222"/>
<path d="M131.527 395.757C133.555 396.591 134.523 398.912 133.689 400.94C132.854 402.968 130.533 403.936 128.505 403.102C126.477 402.267 125.509 399.946 126.343 397.918C127.178 395.89 129.499 394.922 131.527 395.757Z" fill="#F5F5F5" stroke="#222222"/>
<path d="M165.733 357.621C167.284 359.171 167.284 361.686 165.733 363.237C164.182 364.788 161.668 364.788 160.117 363.237C158.566 361.686 158.566 359.172 160.117 357.621C161.668 356.07 164.182 356.07 165.733 357.621Z" fill="#F5F5F5" stroke="#222222"/>
<path d="M171.372 331.164C171.372 333.357 169.594 335.135 167.401 335.135C165.208 335.135 163.43 333.357 163.43 331.164C163.43 328.971 165.208 327.193 167.401 327.193C169.594 327.193 171.372 328.971 171.372 331.164Z" fill="#F5F5F5" stroke="#222222"/>
<path d="M191.651 318.533C193.029 320.239 192.763 322.74 191.056 324.118C189.349 325.495 186.849 325.229 185.471 323.522C184.093 321.816 184.36 319.315 186.067 317.938C187.773 316.56 190.273 316.826 191.651 318.533Z" fill="#F5F5F5" stroke="#222222"/>
<path d="M191.651 351.052C193.029 352.759 192.763 355.259 191.056 356.637C189.349 358.014 186.849 357.748 185.471 356.041C184.093 354.335 184.36 351.834 186.067 350.457C187.773 349.079 190.273 349.345 191.651 351.052Z" fill="#F5F5F5" stroke="#222222"/>
<path d="M181.536 379.128C181.536 381.321 179.758 383.099 177.565 383.099C175.372 383.099 173.594 381.321 173.594 379.128C173.594 376.935 175.372 375.157 177.565 375.157C179.758 375.157 181.536 376.935 181.536 379.128Z" fill="#F5F5F5" stroke="#222222"/>
<path d="M192.376 397.673C192.93 399.795 191.659 401.964 189.537 402.518C187.415 403.072 185.245 401.801 184.691 399.679C184.137 397.557 185.409 395.387 187.531 394.833C189.653 394.279 191.822 395.551 192.376 397.673Z" fill="#F5F5F5" stroke="#222222"/>
<path d="M175.897 299.089C177.448 300.64 177.448 303.154 175.897 304.705C174.346 306.256 171.832 306.256 170.281 304.705C168.73 303.154 168.73 300.64 170.281 299.089C171.832 297.538 174.346 297.538 175.897 299.089Z" fill="#F5F5F5" stroke="#222222"/>
<path d="M181.671 62.3418C181.671 62.3418 156.28 80.3466 142.892 49.8771C129.504 19.4077 169.83 53.6514 133.619 69.4976C116.808 75.0378 110.345 53.3399 103.421 42.26C96.4958 31.1802 85.416 35.7968 83.5694 53.8016C81.227 75.2168 68.4557 62.6778 61.6042 54.1544C53.6755 44.2918 38.9323 43.0846 29.7432 51.7842C29.5267 51.9891 29.3102 52.1999 29.0938 52.4163" stroke="#222222" stroke-miterlimit="10" stroke-linecap="round"/>
<path d="M0.976562 194.142C17.7871 188.602 24.2503 210.3 31.1753 221.379C38.1002 232.459 49.1801 227.843 51.0266 209.838C53.369 188.423 66.1404 200.962 72.9919 209.485C80.9201 219.347 95.6637 220.554 104.853 211.855C105.069 211.65 105.286 211.439 105.502 211.223" stroke="#222222" stroke-miterlimit="10" stroke-linecap="round"/>
<path d="M499.294 422.666H0.703125" stroke="#F3FAFD" stroke-width="2.8783" stroke-miterlimit="10"/>
<path d="M185.144 110.969C203.233 117.903 219.035 119.883 228.989 109.2L249.302 82.4236C246.994 83.8084 240.992 73.652 246.994 71.3437C252.995 69.0354 254.381 75.0368 254.381 75.0368C266.845 76.8834 271.924 63.034 271.924 63.034C277.464 72.729 283.926 70.8819 283.926 70.8819C281.47 45.7309 257.621 44.2165 242.16 50.7767C243.176 49.3962 243.762 47.7344 243.762 45.9522C243.762 41.1095 239.422 37.1807 234.067 37.1807C228.712 37.1807 224.372 41.1095 224.372 45.9522C224.372 50.7949 228.712 54.7237 234.067 54.7237C234.469 54.7237 234.866 54.7007 235.258 54.6546C231.256 57.6416 228.781 61.2469 228.989 64.8805C229.317 70.5819 222.988 69.4972 222.988 69.4972C205.445 67.6506 204.983 80.1152 204.983 80.1152C203.598 89.8103 197.596 90.2716 197.596 90.2716C186.389 92.878 182.459 98.5746 181.162 103.041C180.216 106.302 181.974 109.754 185.144 110.969Z" fill="black"/>
<path d="M258.05 109.2C258.42 109.165 258.811 118.406 258.95 122.055C258.986 122.976 259.397 123.836 260.091 124.442C264.313 128.134 279.776 142.346 287.449 158.849C288.121 160.295 287.644 162.016 286.349 162.946L264.914 178.314C264.372 178.703 263.726 178.92 263.059 178.939L203.624 180.637C201.467 180.699 199.814 178.734 200.25 176.62C202.762 164.424 211.358 128.172 228.33 107.599C228.466 107.435 228.585 107.258 228.686 107.07L230.641 103.43C231.515 101.803 233.539 101.191 235.167 102.063C240.25 104.784 250.877 109.881 258.05 109.2Z" fill="black"/>
<path d="M230.836 112.893V122.247" stroke="white" stroke-width="4.8089" stroke-miterlimit="10" stroke-linecap="round"/>
<path d="M253.057 122.187H243.703" stroke="white" stroke-width="4.8089" stroke-miterlimit="10" stroke-linecap="round"/>
<path d="M229.297 136.03L236.07 129.579" stroke="white" stroke-width="4.8089" stroke-miterlimit="10" stroke-linecap="round"/>
<path d="M250.628 134.146L249.828 143.466" stroke="white" stroke-width="4.8089" stroke-miterlimit="10" stroke-linecap="round"/>
<path d="M261.281 134.403L269.643 138.593" stroke="white" stroke-width="4.8089" stroke-miterlimit="10" stroke-linecap="round"/>
<path d="M266.422 151.293L275.583 149.403" stroke="white" stroke-width="4.8089" stroke-miterlimit="10" stroke-linecap="round"/>
<path d="M260.922 162.683L266.309 170.329" stroke="white" stroke-width="4.8089" stroke-miterlimit="10" stroke-linecap="round"/>
<path d="M235.891 108.55L244.253 112.74" stroke="white" stroke-width="4.8089" stroke-miterlimit="10" stroke-linecap="round"/>
<path d="M215.68 140.432L221.99 147.337" stroke="white" stroke-width="4.8089" stroke-miterlimit="10" stroke-linecap="round"/>
<path d="M232.188 146.653L241.496 145.733" stroke="white" stroke-width="4.8089" stroke-miterlimit="10" stroke-linecap="round"/>
<path d="M242.227 153.688L249.918 159.011" stroke="white" stroke-width="4.8089" stroke-miterlimit="10" stroke-linecap="round"/>
<path d="M214.531 155.072L222.222 160.397" stroke="white" stroke-width="4.8089" stroke-miterlimit="10" stroke-linecap="round"/>
<path d="M208.335 160.446L208.094 169.796" stroke="white" stroke-width="4.8089" stroke-miterlimit="10" stroke-linecap="round"/>
<path d="M226.739 170.364L217.391 170.034" stroke="white" stroke-width="4.8089" stroke-miterlimit="10" stroke-linecap="round"/>
<path d="M245.015 173.601L239.742 165.875" stroke="white" stroke-width="4.8089" stroke-miterlimit="10" stroke-linecap="round"/>
<path d="M249.997 74.5454C248.64 76.4865 249.433 78.2837 251.396 79.2624C251.967 79.5513 251.525 80.3961 250.964 80.0856C248.952 78.7089 248.172 76.4491 249.997 74.5454Z" fill="black"/>
<path d="M267.542 94.8888C264.274 94.7457 261.114 92.6265 260.346 89.3601C260.331 89.3088 260.411 89.2819 260.426 89.3376C261.283 92.4595 264.41 94.4179 267.557 94.4275C267.862 94.4318 267.851 94.9036 267.542 94.8888Z" fill="black"/>
<path d="M453.818 233.617C457.26 233.617 460.051 230.827 460.051 227.385C460.051 223.943 457.26 221.152 453.818 221.152C450.376 221.152 447.586 223.943 447.586 227.385C447.586 230.827 450.376 233.617 453.818 233.617Z" stroke="white" stroke-width="1.8549" stroke-miterlimit="10" stroke-linecap="round"/>
<path d="M35.0995 22.1775C38.5415 22.1775 41.3318 19.3872 41.3318 15.9452C41.3318 12.5032 38.5415 9.71289 35.0995 9.71289C31.6575 9.71289 28.8672 12.5032 28.8672 15.9452C28.8672 19.3872 31.6575 22.1775 35.0995 22.1775Z" stroke="#222222" stroke-miterlimit="10" stroke-linecap="round"/>
<path d="M260.158 98.4761C260.158 98.4761 254.154 98.3513 250.461 94.6582C250.461 94.6582 257.386 96.9665 260.386 96.3142L260.158 98.4761Z" fill="black"/>
<path d="M353.223 1.94C372.69 1.94 388.529 17.7789 388.529 37.2461C388.529 56.7133 372.69 72.5521 353.223 72.5521C333.755 72.5521 317.917 56.7133 317.917 37.2461C317.917 17.7789 333.755 1.94 353.223 1.94ZM389.529 37.2461C389.529 17.2266 373.242 0.94 353.223 0.94C333.203 0.94 316.917 17.2266 316.917 37.2461C316.917 57.2656 333.203 73.5521 353.223 73.5521C373.242 73.5521 389.529 57.2656 389.529 37.2461ZM316.477 37.2461C316.477 16.9518 332.928 0.5 353.223 0.5C373.516 0.5 389.969 16.9518 389.969 37.2461C389.969 57.5403 373.517 73.9921 353.223 73.9921C332.928 73.9921 316.477 57.5403 316.477 37.2461Z" fill="white" stroke="#222222"/>
<path d="M353.219 10.3882V37.2461" stroke="#222222" stroke-width="3" stroke-miterlimit="10" stroke-linecap="round" stroke-linejoin="round"/>
<path d="M366.394 50.4211L353.219 37.2461" stroke="#222222" stroke-width="3" stroke-miterlimit="10" stroke-linecap="round" stroke-linejoin="round"/>
<path d="M355.512 37.2459C355.512 38.509 354.488 39.5327 353.225 39.5327C351.962 39.5327 350.938 38.5085 350.938 37.2459C350.938 35.9826 351.962 34.9585 353.225 34.9585C354.488 34.9585 355.512 35.9826 355.512 37.2459Z" fill="white"/>
<path d="M355.512 37.2459C355.512 38.509 354.488 39.5327 353.225 39.5327C351.962 39.5327 350.938 38.5085 350.938 37.2459C350.938 35.9826 351.962 34.9585 353.225 34.9585C354.488 34.9585 355.512 35.9826 355.512 37.2459Z" fill="#2563EB" fill-opacity="0.05"/>
<path d="M355.512 37.2459C355.512 38.509 354.488 39.5327 353.225 39.5327C351.962 39.5327 350.938 38.5085 350.938 37.2459C350.938 35.9826 351.962 34.9585 353.225 34.9585C354.488 34.9585 355.512 35.9826 355.512 37.2459Z" stroke="#222222"/>
<path d="M499.294 422.166H0.703125" stroke="#222222" stroke-miterlimit="10"/>
</svg>
