<svg width="235" height="36" viewBox="0 0 235 36" fill="none" xmlns="http://www.w3.org/2000/svg">
<path d="M34.3398 9.94485C33.9283 9.12189 33.451 8.31538 32.9078 7.57471C32.1178 6.48839 31.2125 5.48437 30.2085 4.57911C28.8095 3.3282 27.2623 2.32418 25.567 1.55059C24.349 0.990968 23.0816 0.595944 21.7649 0.332595C19.9708 -0.0295108 18.1438 -0.0788894 16.3333 0.102163C14.7038 0.266757 13.1402 0.661781 11.6259 1.27078C9.94706 1.92915 8.39988 2.83442 6.98438 3.95365C5.40428 5.22102 4.07107 6.71882 2.98475 8.43059C1.81614 10.274 1.02609 12.2821 0.565231 14.4218C0.318341 15.6398 0.219585 16.8742 0.219585 18.1087C0.203125 23.9682 0.219584 29.8277 0.203125 35.6708C0.203125 35.9506 0.285421 36 0.532312 36C3.61021 35.9835 6.68811 36 9.74955 36C12.5147 36 15.2963 36 18.0615 36C19.0491 36 20.0366 35.9506 21.0077 35.8025C22.8183 35.5062 24.563 34.9631 26.1924 34.1401C27.0483 33.6957 27.8713 33.2184 28.6613 32.6423C29.4678 32.0662 30.225 31.4408 30.9163 30.7495C31.7392 29.943 32.4634 29.0377 33.1218 28.0831C34.1094 26.6346 34.883 25.071 35.4097 23.3921C35.8212 22.0754 36.0845 20.7257 36.1833 19.3596C36.3149 17.6314 36.1997 15.9031 35.8212 14.2078C35.5249 12.7265 35.0311 11.2945 34.3398 9.94485ZM17.9298 6.6859C20.9584 6.60361 23.3943 9.07251 23.4602 11.9694C23.526 14.8333 21.1394 17.3186 18.2261 17.3845C15.3457 17.4339 12.7287 15.146 12.7781 11.9858C12.6629 9.35232 15.0659 6.7682 17.9298 6.6859ZM27.4269 25.6635C27.3446 26.9638 26.4064 28.1324 25.139 28.5768C24.6288 28.7579 24.1021 28.8237 23.5754 28.8237C21.7978 28.8237 20.0366 28.8237 18.259 28.8237V28.8073C16.3333 28.8073 14.4075 28.8566 12.4818 28.7908C10.6713 28.725 9.12409 27.3753 9.02534 25.3837C8.9595 23.8695 9.10763 22.4046 9.53557 20.9726C9.89768 19.7711 10.5231 18.7012 11.6095 17.9935C12.3007 17.5491 13.0743 17.3186 13.8973 17.3845C14.3582 17.4174 14.7203 17.6972 15.0824 17.9441C16.3333 18.8329 17.6994 19.2608 19.2301 18.9481C19.9708 18.7835 20.6456 18.4214 21.2875 18.0264C21.5838 17.8453 21.8636 17.6478 22.1599 17.4997C22.6372 17.2528 23.131 17.3845 23.6083 17.4832C25.0567 17.8124 25.9785 18.7506 26.571 20.0674C27.394 21.8614 27.5586 23.7378 27.4269 25.6635Z" fill="#0271FF"/>
<path d="M19.0501 22.5688C18.902 22.4865 18.8855 22.2561 18.8197 22.0421C19.1654 22.0421 19.5275 22.0915 19.5933 21.6142C18.8691 21.6142 18.1613 21.6306 17.4371 21.5977C17.0915 21.5813 16.9763 21.7623 16.8281 22.0421C17.1409 22.0421 17.4371 22.0421 17.7169 22.0421C17.9638 22.0421 18.1613 22.1738 18.3095 22.3548C18.3588 22.4042 18.4082 22.4701 18.3588 22.5524C18.3259 22.6182 18.2436 22.5853 18.1943 22.5853C17.9474 22.5853 17.7005 22.6017 17.47 22.5853C17.1409 22.5359 16.9763 22.7005 16.8281 23.0132C17.3054 23.0132 17.7498 23.0132 18.1943 23.0132C18.3753 23.0132 18.4082 23.0626 18.3095 23.2272C18.2436 23.3259 18.1613 23.4082 18.0461 23.4741C17.7992 23.5893 17.5359 23.6058 17.289 23.6222C17.1902 23.6222 17.0256 23.5564 16.9927 23.6716C16.9598 23.8033 16.9269 23.9679 17.0421 24.0995C17.1079 24.1654 17.1573 24.2641 17.2396 24.33C17.6346 24.7415 18.0461 25.1529 18.4082 25.5973C18.688 25.943 19.0172 25.9265 19.4287 25.8607C18.8362 25.2188 18.2765 24.6262 17.7005 24.0008C18.3259 23.9514 18.7868 23.7539 18.9678 23.1614C18.9843 23.0955 19.0337 23.0297 19.116 23.0461C19.4287 23.0955 19.511 22.8486 19.6591 22.6347C19.4122 22.6017 19.1983 22.6511 19.0501 22.5688Z" fill="#0271FF"/>
<path d="M59.9483 9.46729C58.7797 8.94059 57.3972 8.67725 55.8171 8.67725C54.204 8.67725 52.7721 8.95705 51.5212 9.51667C50.2703 10.0763 49.2827 10.8663 48.5585 11.8868C47.8343 12.9073 47.4886 14.1253 47.4886 15.5243C47.4886 16.7423 47.7684 17.7628 48.3445 18.5693C48.9041 19.3758 49.5954 20.0013 50.4019 20.4457C51.2084 20.8901 52.2454 21.3839 53.5292 21.927C54.9283 22.5031 55.9487 23.0298 56.5906 23.5071C57.249 23.9844 57.5782 24.6099 57.5782 25.3999C57.5782 26.2558 57.2655 26.9142 56.6236 27.3751C55.9981 27.8359 55.1258 28.0664 54.0394 28.0664C52.9531 28.0664 52.1137 27.7701 51.5541 27.194C50.978 26.6179 50.7476 25.8773 50.8299 24.972H46.2377C46.1883 25.3506 46.1719 25.6468 46.1719 25.8443C46.1719 27.6878 46.8961 29.1198 48.3445 30.1402C49.7929 31.1607 51.6364 31.671 53.8913 31.671C55.5866 31.671 57.068 31.3911 58.3353 30.8151C59.6027 30.2554 60.5903 29.4654 61.298 28.4449C61.9893 27.4409 62.335 26.2887 62.335 25.0049C62.335 23.8198 62.0387 22.8323 61.4626 22.0093C60.8865 21.2028 60.1952 20.5444 59.3723 20.0507C58.5658 19.5569 57.5124 19.0302 56.2615 18.4706C55.2904 18.0262 54.5661 17.6476 54.0394 17.3678C53.5292 17.0715 53.0848 16.7423 52.7392 16.3473C52.3935 15.9523 52.2125 15.4914 52.2125 14.9483C52.2125 14.1417 52.5252 13.4834 53.1506 13.0225C53.7761 12.5452 54.5826 12.3148 55.5866 12.3148C56.5248 12.3148 57.2655 12.5452 57.7922 12.9896C58.3189 13.434 58.5822 14.0101 58.5822 14.7178L58.5493 15.0635H63.339C63.4213 13.7796 63.1744 12.6604 62.5818 11.6893C61.9893 10.7347 61.117 9.99399 59.9483 9.46729Z" fill="#0271FF"/>
<path d="M80.1307 14.9976C78.8798 14.3722 77.3984 14.043 75.7196 14.043C73.7774 14.043 72.0162 14.4709 70.4855 15.3433C68.9383 16.2156 67.7368 17.4007 66.848 18.9149C65.9757 20.4292 65.5312 22.141 65.5312 24.0667C65.5312 25.6139 65.8769 26.9471 66.5682 28.0663C67.2595 29.1856 68.2306 30.0744 69.4815 30.6998C70.7159 31.3253 72.1808 31.6545 73.8597 31.6545C75.8513 31.6545 77.6124 31.2101 79.1431 30.3377C80.6738 29.4654 81.8754 28.2638 82.7477 26.7496C83.6201 25.2353 84.048 23.5236 84.048 21.5978C84.048 20.0506 83.7024 18.7339 83.044 17.6146C82.3527 16.4954 81.3816 15.6231 80.1307 14.9976ZM79.2254 25.1366C78.7152 26.1077 78.0239 26.8648 77.1351 27.4244C76.2463 27.984 75.2258 28.2638 74.0901 28.2638C72.6581 28.2638 71.5389 27.8688 70.7489 27.0952C69.9588 26.3216 69.5638 25.2518 69.5638 23.935C69.5638 22.6677 69.8107 21.5649 70.3209 20.5938C70.8312 19.6227 71.5224 18.882 72.4277 18.3224C73.333 17.7792 74.337 17.4994 75.4562 17.4994C76.9211 17.4994 78.0404 17.878 78.8139 18.6516C79.5875 19.4252 79.9826 20.4786 79.9826 21.7953C79.9826 23.0627 79.7357 24.1655 79.2254 25.1366Z" fill="#0271FF"/>
<path d="M93.1958 18.3059C94.1011 17.7628 95.1051 17.483 96.2408 17.483C97.2448 17.483 98.1172 17.6805 98.8249 18.0755C99.5491 18.4705 100.092 19.0631 100.487 19.8531L103.927 18.092C103.236 16.7588 102.265 15.7547 101.014 15.0634C99.7631 14.3722 98.2653 14.043 96.5371 14.043C94.5455 14.043 92.7679 14.4709 91.2207 15.3433C89.6735 16.2156 88.4556 17.4007 87.5667 18.9149C86.6944 20.4292 86.25 22.141 86.25 24.0667C86.25 25.6139 86.5956 26.9471 87.2869 28.0663C87.9782 29.1856 88.9658 30.0744 90.2332 30.6998C91.5005 31.3253 92.9819 31.6545 94.6936 31.6545C96.3231 31.6545 97.8374 31.3253 99.22 30.6505C100.619 29.9756 101.705 29.0374 102.495 27.8359L99.5327 25.8443C98.9731 26.6508 98.2818 27.2598 97.4753 27.6384C96.6688 28.017 95.78 28.2145 94.8089 28.2145C93.3769 28.2145 92.2577 27.8359 91.4676 27.0623C90.6776 26.2887 90.2825 25.2353 90.2825 23.9186C90.2825 22.6512 90.5459 21.5484 91.0561 20.5773C91.5828 19.6062 92.2906 18.8491 93.1958 18.3059Z" fill="#0271FF"/>
<path d="M104.602 31.4405H108.618L112.025 14.2734H108.009L104.602 31.4405Z" fill="#0271FF"/>
<path d="M111.256 6.62012C110.449 6.62012 109.774 6.86701 109.281 7.36079C108.77 7.85457 108.523 8.46356 108.523 9.18778C108.523 9.81323 108.737 10.3399 109.182 10.7843C109.626 11.2287 110.186 11.4427 110.894 11.4427C111.733 11.4427 112.391 11.1958 112.902 10.702C113.412 10.2083 113.659 9.56634 113.659 8.77629C113.659 8.18376 113.428 7.67352 112.984 7.24557C112.54 6.83409 111.963 6.62012 111.256 6.62012Z" fill="#0271FF"/>
<path d="M129.559 16.8081C129.032 15.9523 128.324 15.2939 127.419 14.833C126.398 14.3063 125.147 14.043 123.699 14.043C122.349 14.043 121.082 14.2899 119.913 14.7836C118.728 15.2774 117.708 15.9852 116.835 16.8904C115.963 17.7957 115.272 18.8656 114.795 20.0835C114.317 21.3015 114.07 22.6347 114.07 24.0667C114.07 25.6797 114.416 27.0459 115.091 28.1651C115.766 29.2843 116.671 30.1567 117.823 30.7492C118.975 31.3417 120.243 31.6545 121.625 31.6545C123.452 31.6545 125.016 31.2101 126.349 30.3377C126.645 30.1402 126.942 29.9098 127.205 29.6793L126.859 31.4405H130.678L134.118 14.2734H130.052L129.559 16.8081ZM125.658 27.408C124.769 27.9511 123.748 28.2309 122.613 28.2309C121.181 28.2309 120.062 27.8524 119.271 27.0788C118.481 26.3052 118.086 25.2518 118.086 23.935C118.086 22.6677 118.333 21.5649 118.844 20.5938C119.354 19.6227 120.045 18.882 120.95 18.3224C121.856 17.7792 122.86 17.4994 123.979 17.4994C125.444 17.4994 126.563 17.878 127.353 18.6516C128.143 19.4252 128.538 20.4786 128.538 21.7953C128.538 23.0627 128.275 24.1655 127.764 25.1366C127.254 26.0912 126.546 26.8483 125.658 27.408Z" fill="#0271FF"/>
<path d="M135.93 31.4409H139.946L144.703 7.59131H140.686L135.93 31.4409Z" fill="#0271FF"/>
<path d="M157.075 14.0103C156.054 13.5659 154.853 13.3354 153.503 13.3354C152.088 13.3354 150.837 13.5659 149.75 14.0103C148.664 14.4547 147.808 15.0966 147.199 15.9031C146.59 16.7096 146.277 17.6478 146.277 18.7012C146.277 19.7546 146.541 20.6269 147.084 21.3018C147.627 21.9931 148.269 22.5198 149.01 22.9148C149.767 23.2934 150.705 23.7048 151.841 24.0999C152.976 24.5113 153.799 24.8734 154.326 25.1862C154.853 25.5154 155.116 25.9433 155.116 26.47C155.116 27.0625 154.836 27.5234 154.26 27.8361C153.684 28.1489 152.976 28.297 152.12 28.297C151.182 28.297 150.442 28.0666 149.931 27.6057C149.421 27.1448 149.191 26.5358 149.257 25.7952H144.878C144.829 26.1408 144.812 26.3877 144.812 26.5358C144.812 27.5399 145.125 28.4451 145.734 29.2187C146.343 30.0088 147.183 30.6178 148.236 31.0457C149.289 31.4901 150.475 31.7041 151.791 31.7041C153.256 31.7041 154.556 31.4901 155.709 31.0622C156.861 30.6342 157.782 30.0088 158.441 29.2023C159.099 28.3958 159.445 27.4411 159.445 26.3383C159.445 25.3508 159.182 24.5278 158.671 23.8859C158.161 23.2275 157.552 22.7173 156.861 22.3387C156.169 21.9601 155.231 21.5487 154.079 21.1043C152.927 20.6763 152.071 20.2813 151.511 19.9356C150.952 19.59 150.672 19.1291 150.672 18.5695C150.672 18.0099 150.919 17.5655 151.413 17.2363C151.906 16.9071 152.532 16.7425 153.306 16.7425C154.244 16.7425 154.968 16.973 155.462 17.4174C155.955 17.8618 156.169 18.4708 156.104 19.2114H160.284C160.301 19.0798 160.317 18.8822 160.317 18.6354C160.317 17.6149 160.037 16.6932 159.461 15.8866C158.902 15.0966 158.095 14.4711 157.075 14.0103Z" fill="#0271FF"/>
<path d="M176.963 14.9812C175.777 14.3557 174.378 14.043 172.765 14.043C170.856 14.043 169.161 14.4709 167.696 15.3433C166.215 16.2156 165.046 17.4007 164.19 18.8985C163.334 20.3963 162.906 22.141 162.906 24.0996C162.906 25.6139 163.252 26.9471 163.943 28.0663C164.634 29.1856 165.622 30.0744 166.889 30.6998C168.157 31.3253 169.655 31.6545 171.383 31.6545C172.667 31.6545 173.934 31.457 175.168 31.0619C176.403 30.6669 177.489 30.0744 178.378 29.2843L176.699 26.4862C176.123 27.0459 175.399 27.4903 174.51 27.803C173.638 28.1322 172.716 28.2803 171.745 28.2803C170.05 28.2803 168.799 27.9017 168.009 27.1446C167.235 26.4039 166.84 25.367 166.807 24.0503H180.419C180.485 23.6717 180.534 23.2767 180.6 22.8652C180.649 22.4537 180.682 22.0258 180.682 21.5814C180.682 20.0342 180.353 18.7174 179.695 17.5982C179.069 16.4625 178.148 15.6066 176.963 14.9812ZM169.539 18.1249C170.412 17.5653 171.432 17.2855 172.601 17.2855C173.588 17.2855 174.428 17.483 175.136 17.8615C175.843 18.2401 176.354 18.7997 176.683 19.5404C176.913 20.0506 176.963 20.6761 176.946 21.3674H167.219C167.317 21.0547 167.383 20.7255 167.531 20.4292C167.992 19.4581 168.667 18.6845 169.539 18.1249Z" fill="#0271FF"/>
<path d="M182.625 31.4409H186.641L191.398 7.59131H187.382L182.625 31.4409Z" fill="#0271FF"/>
<path d="M191.906 31.4409H195.922L200.679 7.59131H196.663L191.906 31.4409Z" fill="#0271FF"/>
<path d="M215.423 14.9812C214.238 14.3557 212.839 14.043 211.226 14.043C209.317 14.043 207.622 14.4709 206.157 15.3433C204.692 16.2156 203.507 17.4007 202.651 18.8985C201.795 20.3963 201.367 22.141 201.367 24.0996C201.367 25.6139 201.713 26.9471 202.404 28.0663C203.095 29.1856 204.083 30.0744 205.35 30.6998C206.618 31.3253 208.116 31.6545 209.844 31.6545C211.128 31.6545 212.395 31.457 213.629 31.0619C214.864 30.6669 215.95 30.0744 216.839 29.2843L215.16 26.4862C214.584 27.0459 213.86 27.4903 212.971 27.803C212.099 28.1322 211.177 28.2803 210.206 28.2803C208.511 28.2803 207.26 27.9017 206.47 27.1446C205.696 26.4039 205.301 25.367 205.268 24.0503H218.88C218.946 23.6717 218.995 23.2767 219.061 22.8652C219.11 22.4537 219.143 22.0258 219.143 21.5814C219.143 20.0342 218.814 18.7174 218.156 17.5982C217.53 16.4625 216.609 15.6066 215.423 14.9812ZM208 18.1249C208.873 17.5653 209.893 17.2855 211.062 17.2855C212.049 17.2855 212.889 17.483 213.596 17.8615C214.304 18.2401 214.814 18.7997 215.144 19.5404C215.374 20.0506 215.423 20.6761 215.407 21.3674H205.68C205.778 21.0547 205.844 20.7255 205.992 20.4292C206.453 19.4581 207.128 18.6845 208 18.1249Z" fill="#0271FF"/>
<path d="M230.04 14.8663C229.217 15.2284 228.509 15.8045 227.867 16.5287L228.312 14.2737H224.493L221.086 31.4408H225.102L226.781 22.9807C227.143 21.1867 227.834 19.8699 228.871 19.047C229.892 18.224 231.192 17.8125 232.756 17.8125C232.953 17.8125 233.118 17.8125 233.282 17.829C233.447 17.8454 233.595 17.8619 233.743 17.8783L234.484 14.0598C232.756 14.0433 231.274 14.3231 230.04 14.8663Z" fill="#0271FF"/>
</svg>
